<mxfile host="app.diagrams.net" modified="2022-05-20T10:52:18.271Z" agent="5.0 (Macintosh; Intel Mac OS X 10_15_7) AppleWebKit/605.1.15 (KHTML, like Gecko) Version/15.5 Safari/605.1.15" etag="2rlolXMUMo6k2xgS5bkn" version="18.0.6" type="github">
  <diagram id="SkwFphzpaOzD1lsO1m-c" name="Page-1">
    <mxGraphModel dx="946" dy="569" grid="1" gridSize="10" guides="1" tooltips="1" connect="1" arrows="1" fold="1" page="1" pageScale="1" pageWidth="827" pageHeight="1169" math="0" shadow="0">
      <root>
        <mxCell id="0" />
        <mxCell id="1" parent="0" />
        <mxCell id="weBzB8vb6pe3BkVykzLF-5" value="" style="edgeStyle=orthogonalEdgeStyle;rounded=0;orthogonalLoop=1;jettySize=auto;html=1;" edge="1" parent="1" source="weBzB8vb6pe3BkVykzLF-1" target="weBzB8vb6pe3BkVykzLF-4">
          <mxGeometry relative="1" as="geometry" />
        </mxCell>
        <mxCell id="weBzB8vb6pe3BkVykzLF-1" value="Start" style="ellipse;whiteSpace=wrap;html=1;" vertex="1" parent="1">
          <mxGeometry x="354" y="10" width="120" height="80" as="geometry" />
        </mxCell>
        <mxCell id="weBzB8vb6pe3BkVykzLF-7" value="" style="edgeStyle=orthogonalEdgeStyle;rounded=0;orthogonalLoop=1;jettySize=auto;html=1;" edge="1" parent="1" source="weBzB8vb6pe3BkVykzLF-4" target="weBzB8vb6pe3BkVykzLF-6">
          <mxGeometry relative="1" as="geometry" />
        </mxCell>
        <mxCell id="weBzB8vb6pe3BkVykzLF-4" value="number n" style="shape=parallelogram;perimeter=parallelogramPerimeter;whiteSpace=wrap;html=1;fixedSize=1;" vertex="1" parent="1">
          <mxGeometry x="354" y="110" width="120" height="60" as="geometry" />
        </mxCell>
        <mxCell id="weBzB8vb6pe3BkVykzLF-9" value="" style="edgeStyle=orthogonalEdgeStyle;rounded=0;orthogonalLoop=1;jettySize=auto;html=1;" edge="1" parent="1" source="weBzB8vb6pe3BkVykzLF-6" target="weBzB8vb6pe3BkVykzLF-8">
          <mxGeometry relative="1" as="geometry" />
        </mxCell>
        <mxCell id="weBzB8vb6pe3BkVykzLF-6" value="factorial &amp;nbsp;= 1&lt;br&gt;index = n" style="whiteSpace=wrap;html=1;" vertex="1" parent="1">
          <mxGeometry x="354" y="190" width="120" height="60" as="geometry" />
        </mxCell>
        <mxCell id="weBzB8vb6pe3BkVykzLF-11" value="" style="edgeStyle=orthogonalEdgeStyle;rounded=0;orthogonalLoop=1;jettySize=auto;html=1;" edge="1" parent="1" source="weBzB8vb6pe3BkVykzLF-8" target="weBzB8vb6pe3BkVykzLF-10">
          <mxGeometry relative="1" as="geometry" />
        </mxCell>
        <mxCell id="weBzB8vb6pe3BkVykzLF-19" value="" style="edgeStyle=orthogonalEdgeStyle;rounded=0;orthogonalLoop=1;jettySize=auto;html=1;" edge="1" parent="1" source="weBzB8vb6pe3BkVykzLF-8" target="weBzB8vb6pe3BkVykzLF-18">
          <mxGeometry relative="1" as="geometry" />
        </mxCell>
        <mxCell id="weBzB8vb6pe3BkVykzLF-8" value="index &amp;nbsp;&amp;gt; 1?" style="rhombus;whiteSpace=wrap;html=1;" vertex="1" parent="1">
          <mxGeometry x="364" y="270" width="100" height="90" as="geometry" />
        </mxCell>
        <mxCell id="weBzB8vb6pe3BkVykzLF-13" value="" style="edgeStyle=orthogonalEdgeStyle;rounded=0;orthogonalLoop=1;jettySize=auto;html=1;" edge="1" parent="1" source="weBzB8vb6pe3BkVykzLF-10" target="weBzB8vb6pe3BkVykzLF-12">
          <mxGeometry relative="1" as="geometry" />
        </mxCell>
        <mxCell id="weBzB8vb6pe3BkVykzLF-10" value="factorial = factorial &amp;nbsp;* index" style="whiteSpace=wrap;html=1;" vertex="1" parent="1">
          <mxGeometry x="354" y="400" width="120" height="60" as="geometry" />
        </mxCell>
        <mxCell id="weBzB8vb6pe3BkVykzLF-14" style="edgeStyle=orthogonalEdgeStyle;rounded=0;orthogonalLoop=1;jettySize=auto;html=1;entryX=0;entryY=0.5;entryDx=0;entryDy=0;" edge="1" parent="1" source="weBzB8vb6pe3BkVykzLF-12" target="weBzB8vb6pe3BkVykzLF-8">
          <mxGeometry relative="1" as="geometry">
            <Array as="points">
              <mxPoint x="214" y="315" />
            </Array>
          </mxGeometry>
        </mxCell>
        <mxCell id="weBzB8vb6pe3BkVykzLF-12" value="index = index -1&amp;nbsp;" style="whiteSpace=wrap;html=1;" vertex="1" parent="1">
          <mxGeometry x="154" y="400" width="120" height="60" as="geometry" />
        </mxCell>
        <mxCell id="weBzB8vb6pe3BkVykzLF-17" value="yes" style="text;html=1;strokeColor=none;fillColor=none;align=center;verticalAlign=middle;whiteSpace=wrap;rounded=0;" vertex="1" parent="1">
          <mxGeometry x="420" y="360" width="60" height="30" as="geometry" />
        </mxCell>
        <mxCell id="weBzB8vb6pe3BkVykzLF-21" value="" style="edgeStyle=orthogonalEdgeStyle;rounded=0;orthogonalLoop=1;jettySize=auto;html=1;" edge="1" parent="1" source="weBzB8vb6pe3BkVykzLF-18" target="weBzB8vb6pe3BkVykzLF-20">
          <mxGeometry relative="1" as="geometry" />
        </mxCell>
        <mxCell id="weBzB8vb6pe3BkVykzLF-18" value="factorial" style="shape=document;whiteSpace=wrap;html=1;boundedLbl=1;" vertex="1" parent="1">
          <mxGeometry x="534" y="275" width="120" height="80" as="geometry" />
        </mxCell>
        <mxCell id="weBzB8vb6pe3BkVykzLF-20" value="end" style="ellipse;whiteSpace=wrap;html=1;" vertex="1" parent="1">
          <mxGeometry x="534" y="445" width="120" height="60" as="geometry" />
        </mxCell>
        <mxCell id="weBzB8vb6pe3BkVykzLF-22" value="no" style="text;html=1;strokeColor=none;fillColor=none;align=center;verticalAlign=middle;whiteSpace=wrap;rounded=0;" vertex="1" parent="1">
          <mxGeometry x="464" y="280" width="60" height="30" as="geometry" />
        </mxCell>
      </root>
    </mxGraphModel>
  </diagram>
</mxfile>
